Coordinates
version=1
nRows=12
nColumns=24
inDegrees=yes

Units are S.I. units (second, meters, Newtons, ...)
Angles are in degrees.

endheader
time	pelvis_tilt	pelvis_list	pelvis_rotation	pelvis_tx	pelvis_ty	pelvis_tz	hip_flexion_r	hip_adduction_r	hip_rotation_r	knee_angle_r	ankle_angle_r	subtalar_angle_r	mtp_angle_r	hip_flexion_l	hip_adduction_l	hip_rotation_l	knee_angle_l	ankle_angle_l	subtalar_angle_l	mtp_angle_l	lumbar_extension	lumbar_bending	lumbar_rotation
      4.60000000	      7.83198389	      3.01802500	      8.40371695	      0.78390536	      0.89380037	     -0.16056224	     17.08120397	     -2.40857839	     -6.93460130	    -14.42495529	     15.09211287	      6.78467144	      0.00000000	    -31.03120908	      3.53849604	      5.94522275	    -10.55144738	     10.09679748	     -4.62671439	      0.00000000	    -29.61726990	      3.88398157	    -18.00828434
      4.61000000	      7.93133342	      2.80660203	      8.71833572	      0.79933414	      0.89228777	     -0.16002388	     17.59475393	     -2.20909979	     -7.23981776	    -17.11291431	     14.99178634	      6.07808919	      0.00000000	    -30.30633747	      2.79717104	      4.04210188	    -13.36836425	      9.97137931	     -1.88982575	      0.00000000	    -29.51103814	      4.43314222	    -18.32177791
      4.62000000	      8.01219684	      2.53879645	      9.07505909	      0.81483573	      0.89097226	     -0.15947305	     18.07219204	     -1.97969315	     -7.64468264	    -19.66901530	     15.12488108	      5.61614539	      0.00000000	    -29.40685734	      1.95694106	      2.61065100	    -16.33238472	      9.05873637	      0.01637010	      0.00000000	    -29.35696775	      5.04789832	    -18.64193418
      4.63000000	      8.22793374	      2.16369483	      9.39905019	      0.83035287	      0.88998061	     -0.15882866	     18.34664742	     -1.62779625	     -8.19224724	    -22.09172564	     15.54491321	      5.46567526	      0.00000000	    -28.46838161	      0.97910431	      1.37711014	    -19.45111114	      7.49738252	      1.38604247	      0.00000000	    -29.33875190	      5.77244331	    -18.82287857
      4.64000000	      8.44920901	      1.74815279	      9.68106340	      0.84579706	      0.88912903	     -0.15808327	     18.53219665	     -1.22678966	     -8.80681635	    -24.38557420	     16.36809684	      5.56868075	      0.00000000	    -27.33783822	     -0.02748249	      0.39596544	    -22.73905384	      5.30958498	      2.23793833	      0.00000000	    -29.32112144	      6.49618530	    -18.91106438
      4.65000000	      8.63863340	      1.29815022	      9.93781763	      0.86109880	      0.88834597	     -0.15724760	     18.61862821	     -0.78175107	     -9.48417521	    -26.48885691	     17.58779196	      5.90324930	      0.00000000	    -25.95717480	     -1.05658990	     -0.37260212	    -26.21170650	      2.65615681	      2.73779285	      0.00000000	    -29.26088898	      7.20173605	    -18.91320199
      4.66000000	      8.76993997	      0.82027728	     10.19913484	      0.87617511	      0.88760749	     -0.15634356	     18.58451919	     -0.28908579	    -10.17765248	    -28.31575316	     19.08130575	      6.35900043	      0.00000000	    -24.30037489	     -2.10185782	     -0.91966222	    -29.84717946	     -0.28511805	      2.95038845	      0.00000000	    -29.13071176	      7.88102206	    -18.86362279
      4.67000000	      8.82937835	      0.28922323	     10.50031741	      0.89097081	      0.88693172	     -0.15539402	     18.40815410	      0.29185237	    -10.85533574	    -29.77003822	     20.68333147	      6.78512630	      0.00000000	    -22.35743150	     -3.19312202	     -1.24350449	    -33.61904145	     -3.21909515	      3.03276059	      0.00000000	    -28.91649624	      8.56822900	    -18.75641553
      4.68000000	      8.79887331	     -0.29851525	     10.89559487	      0.90542116	      0.88635194	     -0.15447562	     18.10547776	      0.95437103	    -11.53753947	    -30.81416357	     22.26297361	      7.14522414	      0.00000000	    -20.11354915	     -4.33542742	     -1.30936973	    -37.49817066	     -5.81187642	      3.09954833	      0.00000000	    -28.59536142	      9.29036162	    -18.61186324
      4.69000000	      8.68052377	     -0.94280459	     11.39697171	      0.91948463	      0.88593533	     -0.15363566	     17.69339367	      1.69100111	    -12.25240948	    -31.44229084	     23.71980956	      7.42236106	      0.00000000	    -17.59406559	     -5.49559700	     -1.08670578	    -41.42353880	     -7.78418154	      3.20501866	      0.00000000	    -28.17680950	     10.06086495	    -18.46133728
      4.70000000	      8.49278573	     -1.61430917	     12.00626736	      0.93315141	      0.88577999	     -0.15292376	     17.17694423	      2.46725147	    -13.00599931	    -31.67855027	     24.99168214	      7.62341015	      0.00000000	    -14.85637689	     -6.60547847	     -0.56380226	    -45.31024557	     -8.93009621	      3.37432367	      0.00000000	    -27.68419343	     10.86374967	    -18.31689992
      4.71000000	      8.27151147	     -2.27034685	     12.68710484	      0.94644889	      0.88600739	     -0.15234674	     16.53927172	      3.25003901	    -13.77344897	    -31.55895270	     26.04951327	      7.75670771	      0.00000000	    -11.99629092	     -7.57998311	      0.21200386	    -49.05138575	     -9.17890916	      3.59765382	      0.00000000	    -27.16811805	     11.65811562	    -18.17045200
